<?xml version="1.0" encoding="utf-8"?>
<!-- Generator: Adobe Illustrator 22.0.0, SVG Export Plug-In . SVG Version: 6.00 Build 0)  -->
<svg version="1.1" id="Capa_1" xmlns="http://www.w3.org/2000/svg" xmlns:xlink="http://www.w3.org/1999/xlink" x="0px" y="0px"
	 viewBox="0 0 512 512" style="enable-background:new 0 0 512 512;" xml:space="preserve">
<style type="text/css">
	.st0{fill:#606060;}
	.st1{fill:#EFECE8;}
</style>
<path class="st0" d="M256,27.3c-73.7,0.1-133.5,59.9-133.6,133.8v86c0,5.3,4.3,9.6,9.5,9.6h38.2c5.3,0,9.5-4.3,9.5-9.6v-86
	c0-42.2,34.2-76.4,76.3-76.4s76.3,34.2,76.3,76.4v86c0,5.3,4.3,9.6,9.5,9.6H380c5.3,0,9.5-4.3,9.5-9.6v-86
	C389.5,87.3,329.7,27.4,256,27.3z"/>
<path class="st1" d="M380,237.6H132c-15.8,0-28.6,12.8-28.6,28.7v172c0,26.4,21.4,47.8,47.7,47.8H361c26.3,0,47.7-21.4,47.7-47.8
	v-172C408.7,250.4,395.9,237.6,380,237.6z"/>
<path class="st0" d="M281.8,361.2c7.9-7.2,12.4-17.4,12.4-28.1c0-21.1-17.1-38.2-38.2-38.2s-38.2,17.1-38.2,38.2
	c0,10.7,4.5,20.9,12.4,28.1L218.3,397c-1.7,5,1,10.4,6,12.1c1,0.3,2,0.5,3,0.5h57.3c5.3,0,9.5-4.3,9.6-9.5c0-1-0.2-2.1-0.5-3
	L281.8,361.2z"/>
</svg>
