<?xml version="1.0" encoding="utf-8"?>
<!-- Generator: Adobe Illustrator 22.0.0, SVG Export Plug-In . SVG Version: 6.00 Build 0)  -->
<svg version="1.1" id="Calque_1" xmlns="http://www.w3.org/2000/svg" xmlns:xlink="http://www.w3.org/1999/xlink" x="0px" y="0px"
	 viewBox="0 0 900 60.7" style="enable-background:new 0 0 900 60.7;" xml:space="preserve">
<style type="text/css">
	.st0{fill:#242C6D;stroke:#242C6D;stroke-miterlimit:10;}
	.st1{opacity:0.28;fill:#242C6D;stroke:#242C6D;stroke-miterlimit:10;enable-background:new    ;}
</style>
<title>Plan de travail 1</title>
<path class="st0" d="M900,7.6v54.1H0V32c17.2-2,35-2.1,52.3-0.4c13.4,1.3,26.3,3.8,38.2,7.3c17.8,5.2,33.4,12.8,52.6,16.5
	c22.6,4.4,48,2.9,70.8-1.2s43.5-10.8,64.6-17c15.9-4.8,32.2-9.1,49-12.9c28.4-6.4,58.1-10.7,88.7-10.8c25.1-0.1,49.8,2.6,74.2,6.5
	c63.7,10,125.7,27.3,190,20.7c39.4-4,73.3-16.7,109.3-26c4.1-1.1,8.3-2.1,12.6-3C833.7,4.5,869.3,0.8,900,7.6z"/>
<path class="st1" d="M899.2,57.4v3.9H0.7V18.4c32.2-2.9,63,7.7,88.8,18.4c26.1,10.8,54.3,22.7,87.4,22.6
	c28.9-0.1,54.3-9.5,81.6-14.5c24.7-4.6,51.3-5.6,77-3.1c25.8,2.6,49.9,8.8,75.7,11.2c38.8,3.7,78.9-1.2,115.8-8.6
	s71.9-17.3,109.1-24.3c20.3-3.8,41.8-6.7,63.2-5.6c16.9,0.8,33.1,4.1,48.5,7.9C798.1,34.7,844.6,53,899.2,57.4z"/>
</svg>
