<?xml version="1.0" encoding="utf-8"?>
<!-- Generator: Adobe Illustrator 22.0.0, SVG Export Plug-In . SVG Version: 6.00 Build 0)  -->
<svg version="1.1" id="Capa_1" xmlns="http://www.w3.org/2000/svg" xmlns:xlink="http://www.w3.org/1999/xlink" x="0px" y="0px"
	 viewBox="0 0 464 464" style="enable-background:new 0 0 464 464;" xml:space="preserve">
<style type="text/css">
	.st0{fill:#F9EDE0;}
	.st1{fill:#EFECE8;}
	.st2{fill:#606060;}
</style>
<g>
	<path class="st0" d="M-341.1,331.9c-2.4,0.8-4.8,1.6-7.3,2.3C-346,333.5-343.5,332.7-341.1,331.9z"/>
	<path class="st0" d="M-329,327.5c-2.6,1-5.2,2.1-7.9,3C-334.2,329.5-331.6,328.5-329,327.5z"/>
</g>
<circle class="st1" cx="233.5" cy="233" r="232"/>
<g>
	<path class="st0" d="M-353.1,335.6c-2.4,0.7-4.8,1.3-7.2,1.9C-357.9,336.9-355.5,336.2-353.1,335.6z"/>
	<path class="st0" d="M-431.8,343.3c-2.8-0.2-5.7-0.4-8.4-0.7C-437.5,342.9-434.6,343.1-431.8,343.3z"/>
	<path class="st0" d="M-469.7,337.4c-2.4-0.6-4.8-1.2-7.2-1.9C-474.5,336.2-472.1,336.9-469.7,337.4z"/>
	<path class="st0" d="M-445.1,342c-2.5-0.3-5.1-0.7-7.6-1.1C-450.1,341.3-447.6,341.7-445.1,342z"/>
	<path class="st0" d="M-415,344c-4.3,0-8.5-0.1-12.7-0.4C-423.5,343.9-419.3,344-415,344z"/>
	<path class="st0" d="M-457.6,340c-2.4-0.4-4.9-0.9-7.3-1.5C-462.4,339.1-460,339.6-457.6,340z"/>
	<path class="st0" d="M-504.4,326.1c-3.6-1.5-7.2-3.1-10.7-4.8C-511.6,323-508,324.6-504.4,326.1z"/>
	<path class="st0" d="M-493.1,330.5c-2.6-1-5.3-2-7.9-3C-498.4,328.5-495.8,329.5-493.1,330.5z"/>
	<path class="st0" d="M-402.3,343.6c-4.2,0.2-8.4,0.4-12.7,0.4C-410.7,344-406.5,343.9-402.3,343.6z"/>
	<path class="st0" d="M-389.7,342.6c-2.8,0.3-5.6,0.5-8.4,0.7C-395.4,343.1-392.5,342.9-389.7,342.6z"/>
	<path class="st0" d="M-365.2,338.6c-2.4,0.5-4.8,1-7.3,1.5C-370,339.6-367.6,339.1-365.2,338.6z"/>
	<path class="st0" d="M-377.4,340.9c-2.5,0.4-5,0.8-7.6,1.1C-382.4,341.7-379.9,341.3-377.4,340.9z"/>
	<path class="st0" d="M-315,321.4c-3.5,1.7-7,3.3-10.6,4.8C-322,324.6-318.5,323-315,321.4z"/>
	<path class="st0" d="M-481.6,334.3c-2.5-0.7-4.9-1.5-7.3-2.3C-486.5,332.7-484,333.5-481.6,334.3z"/>
	<path class="st0" d="M-325.6,326.1c-1.1,0.5-2.3,0.9-3.4,1.3C-327.9,327-326.7,326.6-325.6,326.1z"/>
	<path class="st0" d="M-314.6,321.2c-0.1,0-0.2,0.1-0.3,0.1C-314.9,321.3-314.8,321.3-314.6,321.2z"/>
	<path class="st0" d="M-464.8,338.6c-1.6-0.4-3.3-0.7-4.9-1.1C-468.1,337.8-466.5,338.2-464.8,338.6z"/>
	<path class="st0" d="M-452.6,340.9c-1.7-0.3-3.3-0.6-5-0.9C-455.9,340.3-454.3,340.6-452.6,340.9z"/>
	<path class="st0" d="M-427.7,343.6c-1.4-0.1-2.7-0.2-4.1-0.3C-430.4,343.4-429.1,343.6-427.7,343.6z"/>
	<path class="st0" d="M-440.3,342.6c-1.6-0.2-3.2-0.4-4.8-0.6C-443.5,342.2-441.9,342.4-440.3,342.6z"/>
	<path class="st0" d="M-515.1,321.4c-0.1,0-0.2-0.1-0.3-0.1C-515.3,321.3-515.2,321.3-515.1,321.4z"/>
	<path class="st0" d="M-398.2,343.3c-1.4,0.1-2.7,0.2-4.1,0.3C-400.9,343.6-399.6,343.4-398.2,343.3z"/>
	<path class="st0" d="M-348.4,334.3c-1.6,0.5-3.1,0.9-4.7,1.3C-351.5,335.2-350,334.7-348.4,334.3z"/>
	<path class="st0" d="M-336.9,330.5c-1.4,0.5-2.8,1-4.2,1.4C-339.7,331.4-338.3,331-336.9,330.5z"/>
	<path class="st0" d="M-501,327.5c-1.1-0.4-2.3-0.9-3.4-1.3C-503.3,326.6-502.1,327-501,327.5z"/>
	<path class="st0" d="M-488.9,331.9c-1.4-0.5-2.8-0.9-4.2-1.4C-491.7,331-490.3,331.4-488.9,331.9z"/>
	<path class="st0" d="M-384.9,342c-1.6,0.2-3.2,0.4-4.8,0.6C-388.1,342.4-386.5,342.2-384.9,342z"/>
	<path class="st0" d="M-360.3,337.4c-1.6,0.4-3.3,0.8-4.9,1.1C-363.5,338.2-361.9,337.8-360.3,337.4z"/>
	<path class="st0" d="M-372.4,340c-1.6,0.3-3.3,0.6-5,0.9C-375.7,340.6-374.1,340.3-372.4,340z"/>
	<path class="st0" d="M-476.9,335.6c-1.6-0.4-3.1-0.9-4.7-1.3C-480,334.7-478.5,335.2-476.9,335.6z"/>
</g>
<path class="st2" d="M286.6,248.9c25.8-17.2,42.9-46.6,42.9-80c0-53-43-96-96-96s-96,43-96,96c0,33.4,17,62.7,42.9,80c0,0,0,0,0,0
	c0,0,0,0,0,0c-61.9,18.6-110,68.9-125.6,132l0,0c2.5,3,5.2,6,7.8,8.9c0.6,0.7,1.3,1.4,2,2.1c2.1,2.2,4.2,4.4,6.3,6.5
	c0.9,0.9,1.8,1.7,2.7,2.6c2,1.9,4,3.8,6,5.6c1,0.9,2,1.8,3.1,2.7c2,1.7,4,3.4,6.1,5.1c1.1,0.9,2.2,1.7,3.3,2.6
	c2.1,1.6,4.2,3.2,6.4,4.7c1.1,0.8,2.2,1.6,3.3,2.4c2.3,1.6,4.6,3.1,6.9,4.6c1,0.7,2.1,1.4,3.1,2c2.7,1.7,5.4,3.2,8.2,4.8
	c0.7,0.4,1.4,0.8,2.2,1.2c3.6,2,7.2,3.8,10.9,5.6c0.1,0,0.2,0.1,0.3,0.1c3.5,1.7,7.1,3.3,10.7,4.8c1.1,0.5,2.3,0.9,3.4,1.3
	c2.6,1,5.2,2.1,7.9,3c1.4,0.5,2.8,1,4.2,1.4c2.4,0.8,4.8,1.6,7.3,2.3c1.6,0.5,3.1,0.9,4.7,1.3c2.4,0.7,4.8,1.3,7.2,1.9
	c1.6,0.4,3.3,0.8,4.9,1.1c2.4,0.5,4.8,1,7.3,1.5c1.6,0.3,3.3,0.6,5,0.9c2.5,0.4,5,0.8,7.6,1.1c1.6,0.2,3.2,0.4,4.8,0.6
	c2.8,0.3,5.6,0.5,8.4,0.7c1.4,0.1,2.7,0.2,4.1,0.3c4.2,0.2,8.4,0.4,12.7,0.4s8.5-0.1,12.7-0.4c1.4-0.1,2.7-0.2,4.1-0.3
	c2.8-0.2,5.7-0.4,8.4-0.7c1.6-0.2,3.2-0.4,4.8-0.6c2.5-0.3,5.1-0.7,7.6-1.1c1.7-0.3,3.3-0.6,5-0.9c2.4-0.4,4.9-0.9,7.3-1.5
	c1.6-0.4,3.3-0.7,4.9-1.1c2.4-0.6,4.8-1.2,7.2-1.9c1.6-0.4,3.1-0.9,4.7-1.3c2.5-0.7,4.9-1.5,7.3-2.3c1.4-0.5,2.8-0.9,4.2-1.4
	c2.6-1,5.3-2,7.9-3c1.1-0.4,2.3-0.9,3.4-1.3c3.6-1.5,7.1-3.1,10.6-4.8c0.1,0,0.2-0.1,0.3-0.1c3.7-1.8,7.3-3.6,10.9-5.6
	c0.7-0.4,1.4-0.8,2.2-1.2c2.8-1.6,5.5-3.1,8.2-4.8c1.1-0.6,2.1-1.3,3.1-2c2.3-1.5,4.6-3,6.9-4.6c1.1-0.8,2.2-1.6,3.3-2.4
	c2.2-1.5,4.3-3.1,6.4-4.7c1.1-0.8,2.2-1.7,3.3-2.6c2.1-1.6,4.1-3.3,6.1-5.1c1-0.9,2.1-1.8,3.1-2.7c2-1.8,4.1-3.7,6-5.6
	c0.9-0.9,1.8-1.7,2.7-2.6c2.1-2.1,4.2-4.3,6.3-6.5c0.7-0.7,1.3-1.4,2-2.1c2.7-2.9,5.3-5.9,7.8-8.9l0,0
	C396.6,317.8,348.4,267.6,286.6,248.9z"/>
</svg>
